<?xml version="1.0" standalone="no"?>
<!DOCTYPE svg PUBLIC "-//W3C//DTD SVG 20010904//EN"
 "http://www.w3.org/TR/2001/REC-SVG-20010904/DTD/svg10.dtd">
<svg version="1.0" xmlns="http://www.w3.org/2000/svg"
 width="1000.000000pt" height="1000.000000pt" viewBox="0 0 1000.000000 1000.000000"
 preserveAspectRatio="xMidYMid meet">
<metadata>
Created by potrace 1.11, written by Peter Selinger 2001-2013
</metadata>
<g transform="translate(0.000000,1000.000000) scale(0.100000,-0.100000)"
fill="#000000" stroke="none">
<path d="M4719 9995 c-2 -2 -40 -6 -84 -9 -152 -10 -309 -28 -415 -46 -30 -5
-71 -12 -90 -15 -30 -5 -276 -56 -335 -70 -11 -3 -60 -16 -110 -30 -49 -14
-99 -28 -109 -30 -10 -2 -35 -10 -55 -17 -20 -7 -38 -13 -41 -13 -13 -3 -66
-21 -180 -62 -109 -40 -153 -57 -270 -106 -14 -6 -27 -11 -30 -12 -11 -3 -150
-69 -230 -109 -190 -95 -334 -178 -510 -295 -63 -42 -119 -78 -124 -80 -5 -2
-16 -9 -25 -17 -9 -7 -65 -50 -126 -95 -60 -45 -114 -87 -120 -93 -5 -6 -38
-34 -72 -61 -35 -28 -63 -53 -63 -57 0 -5 -4 -8 -9 -8 -18 0 -320 -292 -431
-417 -174 -196 -311 -371 -435 -558 -44 -66 -83 -121 -87 -123 -5 -2 -8 -8 -8
-13 0 -6 -15 -34 -34 -63 -70 -110 -274 -493 -282 -531 -2 -8 -48 -117 -93
-220 -15 -34 -63 -159 -65 -170 -1 -5 -10 -35 -21 -65 -10 -30 -18 -57 -18
-60 1 -3 -3 -13 -8 -22 -5 -9 -15 -40 -23 -70 -8 -29 -24 -84 -36 -123 -23
-80 -71 -279 -86 -365 -4 -19 -8 -44 -11 -55 -2 -11 -8 -47 -14 -80 -5 -33
-12 -73 -15 -90 -3 -16 -7 -43 -8 -60 -6 -54 -17 -149 -22 -182 -13 -99 -18
-239 -18 -498 0 -349 6 -455 49 -755 9 -58 20 -125 25 -150 9 -41 38 -182 45
-220 2 -8 4 -15 5 -15 1 0 3 -9 5 -20 7 -39 16 -80 21 -95 3 -8 15 -49 26 -90
22 -85 85 -285 98 -315 5 -11 21 -54 35 -95 14 -41 32 -88 39 -105 8 -16 26
-59 41 -95 15 -36 43 -98 61 -138 19 -41 34 -78 34 -83 0 -5 5 -9 10 -9 6 0
10 -6 10 -14 0 -15 52 -116 151 -294 65 -116 226 -365 241 -370 4 -2 8 -8 8
-13 0 -8 32 -55 77 -114 5 -5 24 -30 43 -55 19 -25 38 -49 42 -55 168 -219
457 -518 703 -726 22 -19 42 -37 45 -40 30 -35 526 -389 545 -389 4 0 21 -11
39 -25 18 -14 36 -25 40 -25 3 0 23 -11 44 -23 148 -93 503 -265 697 -337 20
-8 91 -35 133 -51 30 -12 261 -85 332 -105 104 -29 124 -34 250 -63 25 -5 59
-13 75 -17 17 -4 39 -8 50 -9 11 -2 36 -6 55 -10 41 -8 43 -9 175 -29 55 -9
125 -18 155 -21 30 -4 69 -8 85 -10 216 -28 788 -28 1005 -1 19 3 60 7 90 11
30 3 66 7 80 9 14 3 45 7 70 10 52 7 96 14 126 21 12 3 39 7 60 10 168 26 576
137 769 210 39 14 75 27 80 29 16 5 48 17 70 27 114 49 212 91 220 93 14 3
230 112 340 171 181 98 425 255 600 387 25 19 181 143 192 153 6 5 33 28 58
50 188 159 443 417 578 585 16 19 43 52 60 74 73 88 85 104 137 176 30 41 57
77 61 80 3 3 8 10 10 15 2 6 42 69 89 140 103 158 104 160 131 210 12 22 24
42 28 45 24 19 232 452 296 615 35 88 113 308 120 335 2 8 10 34 19 58 8 23
13 42 9 42 -3 0 0 7 7 15 7 8 10 15 7 15 -3 0 4 28 15 63 17 54 48 182 64 257
2 14 7 32 9 40 3 8 7 32 11 54 7 50 12 74 18 94 3 9 7 40 11 67 5 45 10 79 21
140 2 10 6 49 10 85 3 36 7 76 9 90 27 161 27 775 0 1005 -3 22 -7 60 -10 85
-10 97 -16 139 -36 255 -17 103 -43 232 -66 325 -3 14 -7 32 -9 40 -1 8 -7 31
-13 50 -6 19 -27 91 -47 160 -33 114 -93 297 -113 345 -5 11 -13 31 -18 45
-73 182 -120 286 -205 455 -39 77 -76 150 -82 162 -6 13 -14 23 -18 23 -5 0
-8 5 -8 10 0 6 -18 40 -40 76 -22 36 -40 70 -40 75 0 5 -4 9 -10 9 -5 0 -10 4
-10 9 0 13 -160 255 -171 259 -5 2 -9 8 -9 13 0 12 -179 247 -230 300 -8 9
-33 39 -55 65 -117 142 -384 409 -536 536 -24 20 -54 44 -66 55 -50 42 -68 56
-180 141 -178 133 -390 272 -588 382 -40 23 -315 160 -370 185 -86 39 -138 61
-220 92 -49 19 -94 35 -100 36 -5 2 -14 5 -20 8 -5 4 -41 16 -80 28 -38 13
-79 27 -90 32 -11 5 -29 11 -40 14 -11 3 -51 14 -90 25 -38 12 -78 23 -88 25
-9 2 -45 11 -80 21 -65 17 -85 22 -207 47 -68 15 -96 20 -155 32 -28 5 -165
26 -195 30 -14 2 -52 6 -85 10 -33 4 -73 9 -90 11 -96 11 -192 15 -471 19
-172 2 -313 2 -315 0z"/>
</g>
</svg>
