<?xml version="1.0" standalone="no"?>
<!DOCTYPE svg PUBLIC "-//W3C//DTD SVG 20010904//EN"
 "http://www.w3.org/TR/2001/REC-SVG-20010904/DTD/svg10.dtd">
<svg version="1.0" xmlns="http://www.w3.org/2000/svg"
 width="1970.000000pt" height="1970.000000pt" viewBox="0 0 1970.000000 1970.000000"
 preserveAspectRatio="xMidYMid meet">
<metadata>
Created by potrace 1.11, written by Peter Selinger 2001-2013
</metadata>
<g transform="translate(0.000000,1970.000000) scale(0.100000,-0.100000)"
fill="#000000" stroke="none">
<path d="M9439 19696 c-2 -2 -69 -7 -149 -10 -80 -4 -158 -9 -175 -11 -16 -1
-69 -6 -116 -9 -47 -4 -97 -9 -110 -11 -13 -2 -58 -6 -99 -10 -41 -4 -84 -9
-95 -11 -11 -2 -45 -6 -75 -9 -78 -7 -446 -63 -530 -80 -22 -4 -44 -8 -110
-20 -249 -45 -699 -157 -1000 -249 -295 -89 -722 -242 -883 -315 -25 -11 -49
-21 -52 -21 -3 0 -25 -9 -48 -19 -23 -10 -109 -49 -192 -86 -648 -289 -1322
-690 -1893 -1124 -120 -91 -329 -258 -416 -331 -46 -39 -189 -163 -206 -180
-9 -8 -61 -55 -115 -105 -195 -177 -571 -561 -706 -720 -19 -22 -39 -44 -45
-50 -22 -20 -262 -312 -357 -434 -772 -995 -1354 -2142 -1692 -3336 -91 -320
-188 -741 -229 -995 -47 -287 -69 -446 -92 -650 -3 -30 -7 -71 -9 -90 -3 -19
-7 -73 -10 -120 -3 -47 -8 -94 -10 -105 -27 -138 -27 -1222 0 -1480 2 -22 7
-76 10 -120 7 -86 7 -94 30 -290 18 -158 24 -204 35 -275 5 -30 12 -75 15
-100 12 -87 57 -337 91 -500 303 -1452 928 -2809 1842 -3995 96 -125 279 -350
317 -391 5 -6 35 -39 65 -74 246 -285 618 -659 890 -896 24 -21 54 -47 65 -57
11 -11 81 -70 156 -133 460 -385 970 -736 1508 -1038 150 -85 640 -336 654
-336 3 0 43 -18 89 -39 135 -63 401 -174 574 -239 932 -353 1926 -562 2944
-619 265 -15 1152 -7 1270 11 14 2 66 7 115 11 83 5 301 28 385 39 19 3 58 8
85 11 450 57 1055 187 1498 321 205 62 473 150 568 187 35 14 132 51 214 82
566 218 1195 540 1735 889 827 534 1539 1159 2199 1932 326 382 744 972 976
1379 533 934 865 1767 1091 2739 86 368 170 863 199 1176 4 41 9 82 10 90 2 8
6 60 10 115 4 55 9 107 10 116 26 143 26 1249 0 1469 -2 19 -6 73 -10 120 -3
47 -8 103 -10 125 -3 22 -12 103 -20 180 -72 634 -225 1322 -430 1940 -364
1097 -911 2112 -1624 3010 -127 160 -282 348 -305 370 -6 6 -26 28 -45 50
-123 144 -475 506 -657 675 -952 883 -2029 1556 -3214 2008 -609 232 -1317
422 -1915 515 -16 3 -59 10 -95 16 -36 5 -83 12 -105 15 -22 3 -92 12 -155 21
-132 17 -381 41 -520 51 -52 3 -108 8 -125 10 -36 6 -1000 15 -1006 10z"/>
</g>
</svg>
