<?xml version="1.0" standalone="no"?>
<!DOCTYPE svg PUBLIC "-//W3C//DTD SVG 20010904//EN"
 "http://www.w3.org/TR/2001/REC-SVG-20010904/DTD/svg10.dtd">
<svg version="1.0" xmlns="http://www.w3.org/2000/svg"
 width="829.000000pt" height="829.000000pt" viewBox="0 0 829.000000 829.000000"
 preserveAspectRatio="xMidYMid meet">
<metadata>
Created by potrace 1.11, written by Peter Selinger 2001-2013
</metadata>
<g transform="translate(0.000000,829.000000) scale(0.100000,-0.100000)"
fill="#000000" stroke="none">
<path d="M3825 8280 c-345 -32 -624 -90 -927 -191 -1209 -404 -2173 -1390
-2573 -2630 -40 -127 -92 -316 -110 -404 -15 -76 -44 -234 -50 -275 -3 -25 -8
-56 -10 -70 -40 -271 -42 -818 -4 -1099 12 -88 18 -126 24 -161 3 -14 7 -41
10 -60 38 -234 141 -593 239 -833 120 -295 274 -580 449 -829 71 -101 190
-258 222 -292 6 -6 39 -45 75 -86 216 -249 532 -522 825 -713 540 -351 1150
-563 1800 -624 130 -13 640 -9 745 5 52 7 115 15 140 17 238 28 599 121 851
218 160 62 224 91 384 172 677 344 1255 885 1649 1545 334 560 519 1138 585
1830 9 93 8 686 -2 725 -2 11 -8 52 -11 90 -43 436 -185 939 -387 1360 -290
608 -734 1147 -1269 1542 -103 76 -323 221 -349 230 -9 3 -23 12 -31 19 -29
24 -287 153 -427 213 -331 141 -758 255 -1078 287 -38 3 -81 8 -95 11 -49 8
-596 11 -675 3z"/>
</g>
</svg>
