<?xml version="1.0" standalone="no"?>
<!DOCTYPE svg PUBLIC "-//W3C//DTD SVG 20010904//EN"
 "http://www.w3.org/TR/2001/REC-SVG-20010904/DTD/svg10.dtd">
<svg version="1.0" xmlns="http://www.w3.org/2000/svg"
 width="1000.000000pt" height="1000.000000pt" viewBox="0 0 1000.000000 1000.000000"
 preserveAspectRatio="xMidYMid meet">
<metadata>
Created by potrace 1.11, written by Peter Selinger 2001-2013
</metadata>
<g transform="translate(0.000000,1000.000000) scale(0.100000,-0.100000)"
fill="#000000" stroke="none">
<path d="M5011 8540 c-65 -25 -76 -27 -85 -14 -10 12 -24 13 -96 5 -47 -6
-114 -19 -149 -31 -35 -12 -65 -19 -68 -16 -3 3 6 8 21 12 27 6 35 31 13 40
-20 7 -94 -22 -166 -68 -36 -22 -58 -32 -48 -21 39 44 -2 46 -61 2 -30 -22
-49 -29 -65 -25 -18 4 -31 -3 -56 -28 -23 -23 -39 -32 -55 -29 -16 3 -44 -11
-97 -51 -41 -31 -79 -56 -85 -56 -7 0 -19 -11 -28 -25 -9 -14 -37 -35 -63 -47
-30 -15 -66 -45 -98 -84 -27 -33 -77 -93 -110 -133 -151 -182 -273 -381 -278
-453 -1 -18 -16 -60 -34 -93 -29 -57 -45 -125 -48 -205 0 -19 -9 -70 -18 -113
-10 -45 -17 -113 -16 -160 1 -45 -3 -119 -10 -165 -12 -79 -9 -122 8 -122 4 0
8 -69 9 -152 2 -128 25 -378 37 -397 1 -3 4 -69 6 -146 2 -89 8 -150 16 -167
15 -32 17 -140 3 -154 -6 -6 -34 -6 -77 -1 -88 12 -146 -3 -190 -49 -57 -61
-80 -195 -49 -296 7 -25 39 -88 70 -141 31 -53 76 -150 100 -217 66 -179 139
-313 211 -387 85 -87 149 -100 246 -52 l37 18 16 -72 c22 -94 120 -576 151
-737 59 -314 74 -555 42 -677 -30 -114 -71 -178 -191 -301 -61 -63 -131 -126
-156 -140 -25 -14 -65 -40 -90 -58 -25 -17 -148 -94 -275 -170 -292 -175 -758
-409 -975 -489 -158 -59 -382 -175 -538 -279 -86 -58 -173 -119 -191 -136
l-35 -30 30 -31 c54 -58 234 -217 337 -299 56 -45 111 -89 122 -98 11 -9 31
-25 45 -34 14 -10 63 -44 110 -77 86 -61 265 -177 323 -210 18 -10 73 -41 124
-70 201 -113 585 -285 768 -343 33 -10 69 -23 80 -27 50 -22 312 -95 450 -126
39 -9 88 -20 110 -25 22 -6 69 -15 105 -21 354 -60 404 -64 910 -64 518 0 566
4 930 70 155 28 312 65 470 112 72 21 289 92 315 103 11 4 36 14 55 20 38 14
80 31 134 55 19 8 37 15 40 15 34 0 508 242 641 328 11 6 27 15 35 19 43 20
391 263 476 333 17 14 42 34 55 44 60 48 230 196 286 250 l63 59 -58 43 c-224
166 -514 307 -1201 583 -288 115 -310 127 -537 292 -219 159 -347 299 -405
446 -21 52 -24 73 -22 193 1 145 13 251 40 369 17 71 19 74 73 111 201 138
300 264 359 454 12 38 44 193 72 345 87 480 133 680 193 836 72 187 89 254 84
342 -3 59 -8 76 -27 97 -14 14 -31 26 -39 26 -9 0 -12 6 -7 18 3 9 15 55 26
100 25 105 35 132 61 159 15 16 22 43 28 115 5 51 16 118 24 148 9 30 16 85
16 123 0 41 4 67 11 67 7 0 10 48 8 153 -2 83 -1 157 3 162 3 6 2 59 -3 118
-6 69 -6 121 0 143 6 23 7 65 1 117 -6 53 -6 85 0 91 14 14 12 128 -4 208 -9
47 -10 70 -2 78 7 7 6 24 -2 55 -7 25 -12 61 -12 80 0 19 -4 35 -10 35 -13 0
-50 74 -50 102 0 15 -18 39 -52 70 -51 46 -52 47 -20 37 41 -14 63 1 46 29
-15 24 -99 86 -164 122 -35 18 -48 30 -35 30 13 0 3 10 -30 29 -27 16 -70 47
-95 70 -37 35 -41 41 -20 35 44 -12 6 21 -53 46 -73 31 -86 43 -56 50 21 5 18
9 -26 25 -27 10 -52 22 -55 26 -3 4 -66 34 -140 67 -74 33 -134 64 -132 68 1
5 25 9 52 9 101 0 35 27 -95 40 -38 3 -71 8 -73 10 -13 13 12 32 57 44 28 7
51 17 51 22 0 5 -53 9 -117 8 -149 -1 -203 3 -203 13 0 4 19 8 43 8 31 0 38 3
27 10 -20 13 -182 13 -254 -1 -37 -7 -62 -7 -69 -1 -7 6 -23 12 -37 14 -18 2
0 11 64 32 102 34 101 45 0 21 -209 -50 -262 -57 -204 -25 43 23 40 24 -30 5
-67 -18 -65 -18 -51 -2 25 31 -34 35 -139 11 -128 -29 -255 -53 -259 -49 -2 3
5 8 15 11 63 22 84 35 84 48 0 25 -66 19 -149 -14z m1341 -1080 c32 0 58 -4
58 -9 0 -5 18 -12 40 -16 22 -4 43 -13 47 -20 5 -7 32 -24 61 -39 29 -15 56
-33 59 -42 3 -8 30 -27 60 -41 102 -50 131 -119 198 -478 14 -77 41 -196 60
-265 19 -69 37 -143 40 -165 6 -36 -19 -302 -29 -312 -2 -2 -32 1 -67 7 -240
40 -524 50 -714 25 -103 -13 -264 -50 -328 -74 -61 -23 -161 -13 -320 33 -178
52 -326 72 -594 81 -310 10 -661 -34 -707 -89 -6 -7 -37 -20 -69 -30 -31 -9
-107 -39 -168 -67 -61 -27 -115 -49 -120 -49 -17 0 -9 153 10 210 10 30 59
135 110 234 50 98 89 181 87 185 -1 3 3 53 10 111 7 58 13 161 13 230 1 93 6
144 21 198 25 90 26 138 3 151 -16 9 -15 13 16 45 34 35 38 75 6 62 -8 -3 -15
-1 -15 4 0 11 73 33 110 33 14 0 63 -3 110 -8 96 -8 241 6 286 29 46 23 198
49 334 57 69 3 169 12 222 19 l96 12 147 -61 c252 -105 296 -107 480 -20 39
18 77 32 85 31 8 -1 51 8 95 20 116 31 166 36 190 21 11 -7 45 -13 77 -13z
m-1247 -1370 c124 -18 339 -71 381 -95 80 -46 95 -138 58 -345 -42 -237 -70
-300 -146 -329 -54 -20 -216 -41 -407 -52 -234 -14 -365 -3 -449 37 -46 22
-57 34 -84 87 -36 73 -63 196 -78 366 -15 170 -4 229 57 285 27 25 50 32 170
45 99 12 417 12 498 1z m1630 -39 c129 -27 149 -36 141 -64 -3 -12 -20 -82
-36 -155 -33 -147 -37 -235 -16 -321 8 -31 18 -81 21 -112 4 -31 10 -62 15
-69 14 -23 30 0 30 45 0 50 17 95 36 95 18 0 27 21 53 119 19 69 22 104 19
201 -3 105 -6 122 -26 150 -20 26 -21 29 -4 19 32 -20 42 -46 46 -117 5 -98
-11 -229 -38 -319 -34 -110 -60 -177 -78 -205 -48 -74 -438 -106 -712 -59
-235 41 -270 81 -301 336 -18 144 -15 277 7 319 28 56 76 87 188 121 150 46
479 54 655 16z m-2485 -146 c45 -28 46 -31 85 -240 29 -156 46 -216 82 -290
54 -109 100 -130 315 -145 276 -18 644 16 734 69 l31 19 -34 -105 c-32 -99
-56 -224 -34 -178 5 11 10 31 11 45 0 14 19 77 41 140 22 63 55 169 74 235 48
173 74 236 111 273 38 38 63 40 91 10 22 -24 59 -129 89 -253 17 -73 43 -133
75 -174 11 -13 19 -33 19 -45 0 -41 31 -141 61 -201 31 -60 40 -112 25 -150
-7 -17 -5 -17 13 4 l21 23 26 -57 c14 -32 30 -80 36 -106 14 -61 2 -79 -53
-79 -44 0 -48 8 -18 33 11 10 19 26 17 35 -5 27 -51 26 -99 -3 -194 -113 -233
-120 -325 -58 -67 46 -138 73 -190 73 -45 0 -54 -23 -23 -57 21 -22 30 -24 76
-20 45 5 54 3 75 -20 12 -14 46 -36 73 -49 39 -18 44 -24 26 -24 -18 0 -22 -3
-14 -11 16 -16 173 10 271 45 23 8 76 18 117 22 42 4 78 11 81 15 10 17 30 8
47 -21 10 -16 23 -30 28 -30 5 0 -2 17 -16 37 -16 24 -25 51 -25 75 0 52 -40
155 -86 224 -38 55 -84 183 -84 229 0 11 -8 31 -17 45 -16 23 -16 23 3 15 10
-4 48 -17 84 -28 59 -19 91 -21 370 -21 309 -1 385 6 451 40 l27 13 6 -92 c12
-163 -31 -392 -100 -528 -37 -74 -40 -106 -5 -48 12 19 21 38 21 43 0 5 2 7 5
5 2 -3 0 -21 -5 -40 -6 -19 -28 -133 -51 -254 -51 -284 -90 -430 -141 -533
-49 -100 -96 -153 -241 -275 -62 -52 -127 -107 -146 -122 l-33 -29 6 35 c6 31
4 29 -24 -21 -17 -30 -58 -82 -90 -115 -48 -49 -74 -66 -137 -90 -77 -29 -81
-30 -258 -29 -139 0 -210 6 -310 23 -165 29 -244 55 -430 143 -82 39 -222 100
-310 135 -227 90 -344 162 -476 293 -172 171 -213 251 -304 597 -73 281 -79
298 -95 300 -9 2 -27 -17 -42 -43 -33 -54 -90 -83 -160 -84 -44 0 -51 4 -100
53 -66 66 -145 208 -208 370 -25 67 -74 169 -108 226 -74 125 -90 185 -75 277
21 121 74 155 209 135 40 -6 116 -27 168 -47 94 -35 133 -40 128 -16 -4 22 16
12 60 -30 34 -32 48 -56 57 -93 6 -27 16 -63 21 -80 4 -16 16 -70 25 -120 29
-161 34 -180 48 -207 13 -26 14 -24 26 50 19 122 22 132 36 132 7 0 15 -6 18
-12 12 -35 16 18 18 232 1 150 -3 258 -10 300 -15 75 -24 63 119 147 52 31
104 62 115 69 31 20 61 16 105 -11z m2821 -417 c19 -35 4 -162 -30 -266 -49
-149 -53 -146 -46 33 7 184 20 255 47 255 9 0 23 -10 29 -22z m-3029 -1647
c31 -42 94 -113 140 -157 51 -49 116 -127 168 -203 47 -67 92 -128 100 -134 8
-7 -24 44 -71 113 -47 69 -89 131 -93 138 -5 8 10 2 33 -12 70 -45 393 -196
418 -196 4 0 33 -15 64 -34 31 -18 84 -46 118 -62 68 -30 145 -102 214 -200
21 -30 41 -54 43 -54 8 0 -34 76 -58 106 -31 38 -60 84 -53 84 3 0 20 -7 37
-16 56 -29 170 -64 282 -86 91 -18 146 -22 301 -22 105 0 202 3 216 7 27 7 27
7 -17 -70 -41 -73 -57 -122 -34 -108 6 3 17 20 26 37 8 16 37 59 62 95 37 50
59 70 100 90 30 14 88 56 130 93 42 38 78 67 80 65 2 -1 -3 -34 -10 -71 -8
-41 -13 -142 -13 -249 0 -162 3 -187 24 -250 45 -132 60 -155 201 -293 l74
-74 -1 -55 c-3 -105 -129 -321 -296 -507 -56 -62 -73 -75 -114 -85 -81 -21
-192 -72 -270 -124 -41 -27 -72 -52 -69 -54 3 -3 40 12 83 35 80 41 222 96
230 88 7 -6 -152 -147 -302 -267 -77 -62 -162 -131 -189 -155 l-49 -42 -116
40 c-213 73 -394 148 -578 239 -101 50 -183 94 -183 98 0 17 348 -27 393 -50
10 -6 17 -6 17 0 0 17 -89 52 -169 66 -44 8 -135 19 -203 24 l-122 10 -84 58
c-383 262 -729 625 -779 815 l-17 67 99 103 c113 117 142 163 182 298 24 82
28 111 27 215 0 71 -10 181 -23 269 -34 222 -41 312 -34 406 5 67 8 81 17 66
6 -11 37 -53 68 -95z"/>
<path d="M4485 6436 c-22 -7 -54 -20 -71 -29 -34 -18 -63 -47 -46 -47 6 0 14
4 17 10 7 11 96 52 102 47 1 -2 -9 -10 -25 -18 -15 -8 -30 -18 -34 -24 -16
-21 -7 -25 23 -10 34 18 48 13 29 -10 -15 -19 -15 -19 49 1 29 8 58 13 64 10
7 -2 4 -5 -5 -5 -29 -2 -20 -21 10 -22 26 -1 26 -1 -5 -10 -18 -5 -33 -14 -33
-19 0 -5 13 -5 31 0 61 18 184 29 224 21 36 -8 33 -9 -32 -10 -45 -1 -73 -5
-73 -12 0 -6 15 -10 33 -9 17 1 34 1 37 1 3 -1 41 -4 85 -6 55 -3 108 -14 170
-36 90 -31 152 -48 190 -52 11 -2 31 -8 43 -16 37 -20 37 -6 0 17 -19 13 -35
17 -39 11 -6 -10 -69 20 -69 34 0 16 37 4 136 -44 58 -28 106 -50 108 -48 2 2
6 20 10 39 5 29 1 45 -24 83 -16 26 -44 56 -62 67 -36 22 -53 26 -43 10 3 -6
-1 -7 -10 -3 -12 4 -13 8 -5 13 31 19 -39 31 -303 49 -75 6 -141 12 -145 15
-5 3 -73 7 -153 10 -101 3 -156 1 -184 -8z m132 -12 c-3 -3 -12 -4 -19 -1 -8
3 -5 6 6 6 11 1 17 -2 13 -5z m366 -121 c-7 -2 -21 -2 -30 0 -10 3 -4 5 12 5
17 0 24 -2 18 -5z"/>
<path d="M6615 6424 c19 -16 19 -16 -15 -10 -47 9 -226 -6 -185 -15 22 -5 9
-7 -45 -9 -64 -2 -69 -4 -35 -10 50 -8 36 -13 -88 -33 -65 -11 -106 -22 -124
-36 -15 -13 -34 -19 -44 -16 -14 5 -29 -9 -64 -56 -25 -35 -45 -71 -45 -81 0
-21 16 -24 23 -4 7 19 69 30 78 14 6 -9 14 -7 31 8 27 25 124 70 183 86 22 6
90 14 150 18 61 5 124 9 140 11 23 1 25 3 8 6 -12 2 -26 10 -32 17 -8 10 -4
11 21 8 19 -3 28 -1 25 5 -8 13 59 1 89 -15 12 -6 32 -9 45 -7 14 3 31 -3 45
-16 13 -12 27 -18 32 -15 6 3 20 -9 31 -27 l22 -32 -7 30 c-4 17 -12 35 -19
40 -6 6 -24 27 -40 49 -27 37 -104 81 -175 100 -25 7 -25 7 -5 -10z m-172
-121 c-7 -2 -21 -2 -30 0 -10 3 -4 5 12 5 17 0 24 -2 18 -5z m60 0 c-7 -2 -19
-2 -25 0 -7 3 -2 5 12 5 14 0 19 -2 13 -5z"/>
<path d="M4900 5882 c-36 -11 -110 -38 -165 -62 -55 -24 -131 -53 -170 -65
-38 -12 -69 -26 -68 -31 2 -5 24 -10 50 -11 27 -1 93 -11 148 -23 55 -12 123
-26 150 -32 28 -5 95 -8 150 -6 82 4 112 10 165 33 36 16 70 34 76 42 30 36
32 -7 3 -62 -12 -22 -31 -51 -43 -64 -14 -16 -16 -22 -6 -19 23 7 78 84 90
126 9 31 8 39 -6 47 -9 6 -42 32 -73 58 -31 27 -69 56 -86 64 -45 24 -140 26
-215 5z m216 -41 c17 -10 45 -37 62 -59 l32 -40 -23 -15 c-26 -17 -150 -57
-175 -57 -11 0 -5 9 16 28 40 33 63 94 52 134 -10 33 -5 34 36 9z m-196 -4 c0
-21 -37 -50 -55 -44 -22 9 -18 36 8 47 32 13 47 12 47 -3z m-120 -66 c0 -24 8
-48 21 -65 11 -14 19 -26 17 -26 -4 0 -139 37 -172 46 -23 7 -15 15 54 53 73
40 80 39 80 -8z"/>
<path d="M6166 5879 c-53 -13 -99 -42 -131 -85 -38 -50 -29 -90 33 -144 48
-43 100 -75 108 -67 3 3 -10 14 -28 25 -45 28 -116 102 -98 102 8 0 64 -9 124
-20 156 -28 276 -27 344 5 28 13 52 29 52 34 0 6 22 2 50 -9 28 -11 50 -16 50
-12 0 11 -226 138 -280 157 -56 20 -172 28 -224 14z m54 -37 c0 -19 -28 -44
-46 -40 -25 4 -30 35 -7 41 30 8 53 7 53 -1z m211 -18 c33 -16 89 -63 89 -74
0 -16 -118 -60 -162 -60 -25 0 -47 3 -51 6 -3 3 9 18 26 34 27 24 32 35 32 74
0 50 5 51 66 20z m-306 -84 c6 -10 4 -12 -9 -7 -10 4 -26 7 -37 7 -25 0 -24
11 3 46 l22 28 7 -30 c3 -17 10 -37 14 -44z"/>
<path d="M3232 5473 c-7 -3 -18 -17 -26 -31 -37 -74 -25 -138 47 -254 53 -84
86 -157 129 -278 39 -112 62 -146 117 -181 62 -40 118 -36 135 8 6 16 6 16
-12 0 -25 -22 -70 -21 -106 2 -41 27 -78 86 -111 177 -35 98 -83 196 -144 294
-43 70 -46 79 -46 142 0 86 15 104 85 101 27 -1 62 -9 78 -17 40 -21 97 -86
128 -147 22 -45 23 -51 7 -44 -10 5 -36 10 -58 13 -55 5 -80 -22 -79 -87 1
-50 46 -152 83 -185 17 -15 13 -1 -19 66 -60 129 -52 188 25 174 32 -6 35 -10
35 -42 0 -24 8 -43 24 -59 22 -22 23 -29 15 -60 -13 -45 -5 -69 26 -83 28 -13
33 -1 9 19 -15 13 -14 31 6 84 10 26 10 26 35 8 23 -16 25 -23 21 -61 -4 -29
0 -56 11 -80 20 -46 18 -60 -15 -94 -30 -32 -42 -34 -82 -13 -24 12 -30 13
-30 2 0 -22 23 -37 58 -37 48 0 67 14 86 61 14 34 15 48 6 70 -10 22 -9 45 4
107 21 102 20 113 -3 85 l-19 -23 -25 43 c-13 23 -43 79 -66 125 -74 147 -145
203 -257 201 -32 0 -65 -3 -72 -6z"/>
<path d="M5382 4938 c-15 -28 -50 -76 -77 -107 -59 -65 -105 -125 -105 -135 0
-4 24 21 53 56 l52 63 6 -49 c6 -58 31 -80 104 -96 40 -9 59 -8 95 3 l45 15
-51 -5 c-52 -5 -115 17 -142 50 -13 16 4 75 53 179 25 54 26 78 4 78 -5 0 -21
-23 -37 -52z"/>
<path d="M5450 4959 c0 -9 7 -22 15 -29 19 -16 19 0 0 26 -12 16 -14 16 -15 3z"/>
<path d="M3843 4865 c25 -97 30 -115 34 -112 5 5 -25 118 -33 126 -4 3 -4 -3
-1 -14z"/>
<path d="M5850 4800 c-8 -5 -41 -10 -72 -10 -32 0 -58 -4 -58 -10 0 -16 98
-12 130 5 29 15 38 25 23 25 -5 0 -15 -5 -23 -10z"/>
<path d="M5713 4400 c0 -47 2 -66 4 -42 2 23 2 61 0 85 -2 23 -4 4 -4 -43z"/>
<path d="M5820 4405 c0 -13 62 -127 66 -122 6 5 -53 127 -61 127 -3 0 -5 -2
-5 -5z"/>
<path d="M5857 4245 c-15 -8 -40 -23 -54 -35 l-25 -20 -29 31 c-27 29 -33 31
-75 25 -25 -3 -108 -31 -183 -61 -149 -59 -316 -108 -342 -100 -19 6 -69 -31
-69 -51 0 -12 3 -12 23 1 13 8 26 13 29 10 3 -3 38 -15 79 -26 41 -11 144 -53
229 -94 179 -84 235 -99 351 -93 81 4 91 7 259 88 165 78 225 112 243 135 7 9
46 -30 47 -47 0 -5 5 -8 10 -8 15 0 12 53 -4 75 -9 13 -20 16 -37 12 -51 -13
-234 53 -309 113 -31 24 -98 60 -112 60 -2 0 -16 -7 -31 -15z m63 -35 c4 0 26
-15 49 -34 l40 -34 -52 -21 c-29 -11 -74 -23 -102 -27 -46 -6 -49 -6 -36 9 9
12 10 17 2 17 -6 0 -14 -7 -17 -15 -11 -27 -34 -17 -34 15 0 17 -5 30 -11 30
-7 0 -9 -11 -6 -27 l6 -28 -137 3 c-75 1 -156 3 -180 5 l-43 2 88 37 c178 75
204 80 238 48 37 -35 75 -35 120 -1 22 17 46 28 53 26 8 -3 17 -5 22 -5z m-5
-160 c61 -5 142 -16 180 -23 l70 -14 -40 -17 c-22 -10 -49 -18 -60 -18 -11 -1
-28 -8 -38 -17 -16 -14 -17 -13 -11 5 5 13 -4 8 -30 -16 -21 -20 -34 -27 -31
-17 11 26 -11 20 -32 -9 l-20 -26 -154 0 c-169 0 -171 0 -332 78 l-79 37 34
14 c97 42 265 49 543 23z"/>
<path d="M5655 3710 c-26 -11 52 -12 115 -1 43 8 42 9 -25 9 -38 0 -79 -3 -90
-8z"/>
<path d="M5745 3209 c-27 -5 -69 -7 -93 -4 -30 3 -41 1 -36 -6 8 -14 145 -6
184 10 30 12 12 12 -55 0z"/>
<path d="M6180 3182 c0 -4 -30 -138 -66 -297 -73 -321 -82 -365 -66 -350 18
17 152 573 152 629 0 14 -4 26 -10 26 -5 0 -10 -4 -10 -8z"/>
<path d="M4060 2930 c0 -21 63 -205 104 -305 44 -107 116 -238 138 -251 7 -5
2 8 -10 27 -60 91 -150 298 -197 452 -24 79 -35 104 -35 77z"/>
<path d="M5670 2636 c-5 -15 -13 -38 -16 -51 -19 -78 -146 -115 -217 -64 -29
21 -42 22 -29 3 18 -26 60 -44 105 -44 81 0 134 40 162 123 17 51 13 80 -5 33z"/>
<path d="M5220 1472 c0 -7 14 -26 31 -44 32 -34 29 -25 -9 26 -12 16 -22 24
-22 18z"/>
</g>
</svg>
