<?xml version="1.0" standalone="no"?>
<!DOCTYPE svg PUBLIC "-//W3C//DTD SVG 20010904//EN"
 "http://www.w3.org/TR/2001/REC-SVG-20010904/DTD/svg10.dtd">
<svg version="1.0" xmlns="http://www.w3.org/2000/svg"
 width="500.000000pt" height="500.000000pt" viewBox="0 0 500.000000 500.000000"
 preserveAspectRatio="xMidYMid meet">
<metadata>
Created by potrace 1.11, written by Peter Selinger 2001-2013
</metadata>
<g transform="translate(0.000000,500.000000) scale(0.100000,-0.100000)"
fill="#000000" stroke="none">
<path d="M2358 4665 c-2 -2 -32 -6 -68 -10 -36 -3 -72 -8 -80 -10 -8 -2 -35
-7 -60 -10 -25 -3 -99 -20 -165 -36 -143 -36 -136 -35 -155 -41 -8 -3 -37 -13
-65 -23 -27 -9 -59 -20 -70 -25 -11 -5 -45 -19 -75 -32 -73 -30 -231 -112
-297 -154 -30 -19 -57 -34 -62 -34 -5 0 -11 -3 -13 -7 -1 -5 -25 -24 -53 -43
-157 -108 -372 -312 -480 -455 -33 -44 -63 -81 -67 -83 -5 -2 -8 -10 -8 -18 0
-8 -4 -14 -10 -14 -5 0 -10 -6 -10 -14 0 -8 -3 -16 -8 -18 -18 -8 -202 -346
-202 -372 0 -3 -5 -17 -11 -33 -6 -15 -10 -30 -11 -33 0 -3 -3 -9 -8 -15 -8
-10 -58 -163 -66 -200 -4 -21 -7 -32 -23 -100 -15 -61 -20 -93 -40 -260 -8
-69 -7 -401 2 -440 3 -11 8 -49 12 -85 4 -36 9 -68 11 -71 2 -3 6 -20 9 -38
16 -93 83 -322 98 -337 4 -4 7 -13 7 -21 0 -48 190 -401 277 -513 92 -118 148
-183 238 -273 57 -57 203 -183 255 -219 111 -79 139 -98 143 -98 3 0 34 -17
68 -39 57 -34 154 -82 273 -136 54 -24 221 -81 298 -101 93 -24 116 -29 178
-39 25 -4 54 -9 65 -11 22 -5 69 -11 160 -20 117 -13 420 -7 510 10 11 2 42 7
68 10 63 10 66 10 172 35 365 87 702 257 980 495 81 69 201 190 255 256 24 30
50 62 58 70 31 34 122 166 122 177 0 6 4 13 9 15 14 6 151 261 152 285 0 5 6
17 13 28 12 19 74 182 81 215 2 8 13 51 25 95 12 44 23 89 24 100 2 11 6 36
10 55 15 83 17 98 24 155 8 80 9 371 0 465 -17 182 -66 381 -140 570 -56 144
-153 333 -198 387 -5 7 -10 15 -10 18 0 11 -98 146 -165 225 -65 78 -265 269
-340 325 -44 33 -81 63 -83 68 -2 4 -7 7 -12 7 -4 0 -43 24 -88 53 -74 48
-180 110 -192 112 -3 0 -39 17 -80 36 -41 20 -115 51 -165 69 -118 43 -117 42
-140 47 -30 7 -38 9 -57 17 -9 4 -22 9 -30 10 -7 2 -24 6 -38 9 -14 4 -38 9
-55 12 -16 3 -52 10 -80 15 -27 6 -68 12 -90 15 -22 3 -56 8 -75 12 -35 6
-446 14 -452 8z"/>
</g>
</svg>
